<svg xmlns="http://www.w3.org/2000/svg" viewBox="0 0 512 512" width="512" height="512">
	<rect width="512" height="512" rx="96" fill="#0a0f0d" />
	<circle cx="256" cy="256" r="224" fill="#131a17" stroke="#1f2a26" stroke-width="6" />
	<g transform="translate(256 256)">
		<g fill="#d4a017">
			<path d="M0 -200 A200 200 0 0 1 117.56 -161.80 L70.53 -97.08 A120 120 0 0 0 0 -120 Z" />
			<path d="M161.80 -117.56 A200 200 0 0 1 200 0 L120 0 A120 120 0 0 0 97.08 -70.53 Z" />
			<path d="M117.56 161.80 A200 200 0 0 1 0 200 L0 120 A120 120 0 0 0 70.53 97.08 Z" />
			<path d="M-161.80 117.56 A200 200 0 0 1 -200 0 L-120 0 A120 120 0 0 0 -97.08 70.53 Z" />
		</g>
		<g fill="#b91c1c">
			<path d="M117.56 -161.80 A200 200 0 0 1 200 0 L120 0 A120 120 0 0 0 70.53 -97.08 Z" opacity="0" />
		</g>
		<circle r="80" fill="#1f2a26" />
		<circle r="40" fill="#b91c1c" />
		<circle r="16" fill="#f4f7f6" />
	</g>
</svg>
